<svg xmlns="http://www.w3.org/2000/svg" viewBox="0 0 1166.53 697"><defs><style>.cls-1{fill:none;stroke:#000;stroke-miterlimit:10;stroke-width:2px;}</style></defs><g id="Layer_2" data-name="Layer 2"><g id="Layer_1-2" data-name="Layer 1"><path d="M198,252v96H2V252H198m2-2H0V350H200Z"/><path d="M498,85v96H302V85H498m2-2H300V183H500Z"/><path d="M516,374v96H320V374H516m2-2H318V472H518Z"/><path d="M1020,2V98H824V2h196m2-2H822V100h200Z"/><path d="M1127,309v96H931V309h196m2-2H929V407h200Z"/><path d="M962,599v96H766V599H962m2-2H764V697H964Z"/><line class="cls-1" x1="279.82" y1="136.13" x2="105.58" y2="242.2"/><path d="M290,129.69c-5.92,1.29-13.8,2.06-19.53,1.21l8,6.16,2.24,9.86C282.38,141.36,286.37,134.52,290,129.69Z"/><line class="cls-1" x1="301.51" y1="432.97" x2="111.47" y2="358.88"/><path d="M312.76,437.36c-6.06-.1-13.94.69-19.39,2.65l6.66-7.62.25-10.11C303,427.42,308.23,433.34,312.76,437.36Z"/><line class="cls-1" x1="418.09" y1="351.32" x2="399.63" y2="192.04"/><path d="M419.48,363.31c1.44-5.89,4.21-13.31,7.49-18.09l-9.06,4.52-9.84-2.33C412.35,351.32,416.74,357.91,419.48,363.31Z"/><path class="cls-1" d="M802.1,26.49c-48.24,1.59-87.31.6-113.1-.49C563.73,20.69,507.11,2.38,451,37a154.91,154.91,0,0,0-43,40"/><path d="M814.17,26.22c-5.74-1.94-12.9-5.33-17.38-9l3.72,9.41-3.15,9.61C801.61,32.29,808.55,28.48,814.17,26.22Z"/><line class="cls-1" x1="1024.5" y1="291.04" x2="928.63" y2="107.6"/><path d="M1030.09,301.74c-.76-6-.84-13.93.51-19.56l-6.84,7.45-10,1.36C1019.14,293.1,1025.6,297.68,1030.09,301.74Z"/><line class="cls-1" x1="473.31" y1="357.49" x2="865.38" y2="108.06"/><path d="M463.17,363.68c5.92-1.27,13.8-2,19.54-1.15l-8-6.19-2.2-9.87C470.85,352,466.83,358.86,463.17,363.68Z"/><line class="cls-1" x1="873.61" y1="581.67" x2="972.86" y2="417.91"/><path d="M867.36,592c4.75-3.76,11.48-7.93,17-9.69l-9.92-2-6.35-7.87C869.08,578.15,868.51,586,867.36,592Z"/><path class="cls-1" d="M470.78,492.23c7.31,10.43,20.09,25.48,40.22,35.77,41.39,21.15,93.21,11.63,119-4,106.88-64.79-23.52-361.84,93-447,30.42-22.23,67.38-22.5,88-21"/><path d="M464.85,480.28c.8,6,.92,13.92-.4,19.57l6.8-7.5,10-1.42C475.85,488.86,469.37,484.31,464.85,480.28Z"/><path class="cls-1" d="M983,637.21c20.49-11.66,142.87-84,175-233.21,27.73-128.86-22.5-265.5-129-354"/><path d="M972.87,643.39c5.92-1.27,13.8-2,19.53-1.14l-8-6.19-2.2-9.87C980.55,631.75,976.53,638.57,972.87,643.39Z"/></g></g></svg>