<svg xmlns="http://www.w3.org/2000/svg" viewBox="0 0 796 497"><defs><style>.cls-1{fill:none;stroke:#000;stroke-miterlimit:10;stroke-width:2px;}</style></defs><g id="Layer_2" data-name="Layer 2"><g id="Layer_1-2" data-name="Layer 1"><path d="M496,200.75v96H300v-96H496m2-2H298v100H498Z"/><path d="M198,2V98H2V2H198m2-2H0V100H200Z"/><path d="M598,3V99H794V3H598m-2-2H796V101H596Z"/><path d="M198,495V399H2v96H198m2,2H0V397H200Z"/><line class="cls-1" x1="276.45" y1="307.05" x2="203.75" y2="379.75"/><path d="M285,298.52c-2.52,5.51-5,13-5.36,18.81l-4.29-9.16-9.16-4.29C272,303.49,279.47,301,285,298.52Z"/><path d="M598,495V399H794v96H598m-2,2H796V397H596Z"/><line class="cls-1" x1="90.47" y1="384.85" x2="90.47" y2="123"/><path d="M90.47,111.43c2.11,5.68,5.7,12.73,9.51,17.09l-9.51-3.44L81,128.52C84.77,124.16,88.36,117.11,90.47,111.43Z"/><line class="cls-1" x1="224" y1="57" x2="586" y2="57"/><path d="M212.5,57c5.68,2.11,12.73,5.7,17.09,9.51L226.15,57l3.44-9.51C225.23,51.3,218.18,54.89,212.5,57Z"/><path class="cls-1" d="M589.79,418.21C557.41,418.67,427.1,416.81,315,318c-86.57-76.31-117.9-164.67-127-201"/><path d="M184.57,105.09c3.58,4.89,9,10.7,13.81,13.85l-10.09-.71-8.21,5.9C182.56,118.9,184.09,111.13,184.57,105.09Z"/><path class="cls-1" d="M211.92,84.29c32.38-.46,162.69,1.4,274.79,100.21C573.28,260.8,600.9,347.67,610,384"/><path class="cls-1" d="M213,415.44c29.38.62,158.47-2.9,268.24-98.35,87.09-75.72,116-167.89,125.39-204.16"/><path class="cls-1" d="M585.9,86.07c-32.38-.68-162.7.3-275.47,98.35-87.08,75.71-116,167.88-125.38,204.15"/><path d="M612.29,393c.52-6,2.1-13.78,4.61-19l-8.25,5.85-10.08-.78C603.4,382.26,608.74,388.09,612.29,393Z"/><path d="M590.82,86.77c-5.59-2.33-12.49-6.2-16.7-10.18l3.07,9.64-3.82,9.37C577.88,92,585.07,88.65,590.82,86.77Z"/><path d="M203.32,415.8c5.63-2.24,12.6-6,16.87-9.89L217,415.49l3.66,9.43C216.17,421.21,209,417.78,203.32,415.8Z"/><line class="cls-1" x1="294.93" y1="313.96" x2="222.23" y2="386.66"/><path d="M213.5,395.39c5.51-2.52,13-5,18.81-5.36l-9.15-4.29-4.3-9.16C218.47,382.36,216,389.88,213.5,395.39Z"/><line class="cls-1" x1="292.1" y1="178.73" x2="219.41" y2="106.03"/><path d="M300.64,187.26c-5.51-2.52-13-5-18.81-5.36l9.15-4.29,4.3-9.16C295.67,174.23,298.11,181.76,300.64,187.26Z"/><line class="cls-1" x1="285.19" y1="197.21" x2="212.5" y2="124.52"/><path d="M203.77,115.79c2.52,5.5,5,13,5.36,18.81l4.29-9.16,9.15-4.29C216.8,120.76,209.27,118.31,203.77,115.79Z"/><line class="cls-1" x1="572.71" y1="110.99" x2="498.93" y2="182.59"/><path d="M581.37,102.59c-2.61,5.47-5.17,13-5.64,18.72l-4.16-9.22-9.09-4.43C568.26,107.36,575.82,105,581.37,102.59Z"/><line class="cls-1" x1="591.09" y1="118.18" x2="517.3" y2="189.77"/><path d="M508.44,198.37c5.55-2.44,13.11-4.77,18.89-5.08l-9.09-4.42-4.15-9.22C513.61,185.42,511.05,192.9,508.44,198.37Z"/><line class="cls-1" x1="587.18" y1="375.51" x2="513.42" y2="303.89"/><path d="M595.84,383.92c-5.55-2.45-13.11-4.78-18.89-5.09l9.09-4.42,4.16-9.22C590.67,371,593.23,378.45,595.84,383.92Z"/><line class="cls-1" x1="580.54" y1="394.09" x2="506.78" y2="322.47"/><path d="M497.92,313.87c2.61,5.47,5.17,13,5.64,18.73l4.16-9.22,9.09-4.43C511,318.65,503.47,316.31,497.92,313.87Z"/><line class="cls-1" x1="116.72" y1="374.67" x2="116.72" y2="112.82"/><path d="M116.72,385.24c2.11-5.68,5.7-12.73,9.51-17.09l-9.51,3.44-9.51-3.44C111,372.51,114.61,379.56,116.72,385.24Z"/><line class="cls-1" x1="682.84" y1="384.9" x2="682.84" y2="123.05"/><path d="M682.84,111.47c2.11,5.68,5.7,12.73,9.51,17.09l-9.51-3.44-9.51,3.44C677.14,124.2,680.73,117.15,682.84,111.47Z"/><line class="cls-1" x1="709.09" y1="374.72" x2="709.09" y2="112.86"/><path d="M709.09,385.29c2.11-5.68,5.7-12.73,9.51-17.09l-9.51,3.44-9.51-3.44C703.39,372.56,707,379.61,709.09,385.29Z"/><line class="cls-1" x1="214" y1="37" x2="576" y2="37"/><path d="M588.5,37c-5.68,2.11-12.73,5.7-17.09,9.51L574.85,37l-3.44-9.51C575.77,31.3,582.82,34.89,588.5,37Z"/><line class="cls-1" x1="221" y1="460" x2="583" y2="460"/><path d="M209.5,460c5.68,2.11,12.73,5.7,17.09,9.51L223.15,460l3.44-9.51C222.23,454.3,215.18,457.89,209.5,460Z"/><line class="cls-1" x1="211" y1="440" x2="573" y2="440"/><path d="M585.5,440c-5.68,2.11-12.73,5.7-17.09,9.51l3.44-9.51-3.44-9.51C572.77,434.3,579.82,437.89,585.5,440Z"/></g></g></svg>