<svg xmlns="http://www.w3.org/2000/svg" viewBox="0 0 1031.27 612"><defs><style>.cls-1{fill:#fff;}.cls-2{fill:none;stroke:#000;stroke-miterlimit:10;stroke-width:2px;}</style></defs><g id="Layer_2" data-name="Layer 2"><g id="Layer_1-2" data-name="Layer 1"><rect class="cls-1" x="416.63" y="1" width="198" height="98"/><path d="M613.63,2V98h-196V2h196m2-2h-200V100h200Z"/><line class="cls-2" x1="515.29" y1="177.24" x2="515.29" y2="111.44"/><line class="cls-2" x1="237.29" y1="177.24" x2="793.29" y2="177.24"/><line class="cls-2" x1="238.29" y1="232.17" x2="238.29" y2="177.24"/><path d="M238.29,244.24c2.1-5.68,5.7-12.73,9.51-17.1l-9.51,3.44-9.51-3.44C232.58,231.51,236.18,238.56,238.29,244.24Z"/><line class="cls-2" x1="792.29" y1="232.17" x2="792.29" y2="177.24"/><path d="M792.29,244.24c2.1-5.68,5.7-12.73,9.51-17.1l-9.51,3.44-9.51-3.44C786.58,231.51,790.18,238.56,792.29,244.24Z"/><rect class="cls-1" x="139.54" y="256.99" width="198" height="98"/><path d="M336.54,258v96h-196V258h196m2-2h-200V356h200Z"/><rect class="cls-1" x="278.09" y="512.98" width="198" height="98"/><path d="M475.09,514v96h-196V514h196m2-2h-200V612h200Z"/><rect class="cls-1" x="1" y="512.98" width="198" height="98"/><path d="M198,514v96H2V514H198m2-2H0V612H200Z"/><line class="cls-2" x1="237.85" y1="433.24" x2="237.85" y2="364.72"/><line class="cls-2" x1="378.85" y1="433.07" x2="99.85" y2="433.07"/><line class="cls-2" x1="100.85" y1="488.17" x2="100.85" y2="433.24"/><path d="M100.85,500.24c2.11-5.68,5.71-12.73,9.52-17.1l-9.52,3.44-9.51-3.44C95.15,487.51,98.75,494.56,100.85,500.24Z"/><line class="cls-2" x1="377.85" y1="488.17" x2="377.85" y2="433.24"/><path d="M377.85,500.24c2.11-5.68,5.71-12.73,9.52-17.1l-9.52,3.44-9.51-3.44C372.15,487.51,375.75,494.56,377.85,500.24Z"/><rect class="cls-1" x="693.72" y="256.99" width="198" height="98"/><path d="M890.72,258v96h-196V258h196m2-2h-200V356h200Z"/><rect class="cls-1" x="832.27" y="512.98" width="198" height="98"/><path d="M1029.27,514v96h-196V514h196m2-2h-200V612h200Z"/><rect class="cls-1" x="555.18" y="512.98" width="198" height="98"/><path d="M752.18,514v96h-196V514h196m2-2h-200V612h200Z"/><line class="cls-2" x1="792.7" y1="433.46" x2="792.7" y2="364.72"/><line class="cls-2" x1="933.7" y1="433.29" x2="654.7" y2="433.29"/><line class="cls-2" x1="655.7" y1="488.39" x2="655.7" y2="433.46"/><path d="M655.7,500.46c2.11-5.68,5.7-12.73,9.51-17.1l-9.51,3.44-9.51-3.44C650,487.73,653.59,494.78,655.7,500.46Z"/><line class="cls-2" x1="932.7" y1="488.39" x2="932.7" y2="433.46"/><path d="M932.7,500.46c2.11-5.68,5.7-12.73,9.51-17.1l-9.51,3.44-9.51-3.44C927,487.73,930.59,494.78,932.7,500.46Z"/><line class="cls-2" x1="673.92" y1="305.99" x2="353.35" y2="305.99"/><path d="M683.45,306c-5.68-2.1-12.73-5.7-17.1-9.51l3.44,9.51-3.44,9.51C670.72,311.7,677.77,308.1,683.45,306Z"/><line class="cls-2" x1="540.55" y1="562" x2="484.67" y2="562"/><path d="M550.09,562c-5.68-2.1-12.73-5.7-17.1-9.51l3.44,9.51L533,571.51C537.36,567.71,544.41,564.11,550.09,562Z"/><line class="cls-2" x1="262.52" y1="561.98" x2="206.64" y2="561.98"/><path d="M272.06,562c-5.68-2.1-12.73-5.7-17.1-9.51L258.4,562,255,571.49C259.33,567.69,266.38,564.09,272.06,562Z"/><line class="cls-2" x1="58.63" y1="50" x2="401.98" y2="50"/><line class="cls-2" x1="59.63" y1="486.58" x2="59.63" y2="50"/><path d="M59.63,500.24c2.1-5.68,5.7-12.73,9.51-17.1l-9.51,3.44-9.51-3.44C53.92,487.51,57.52,494.56,59.63,500.24Z"/></g></g></svg>