<svg xmlns="http://www.w3.org/2000/svg" viewBox="0 0 1348 378">
	<defs>
		<style>
			.cls-1{fill:#fff;}.cls-2{fill:none;stroke:#000;stroke-miterlimit:10;stroke-width:2px;}
		</style>
	</defs>
	<g id="Layer_2" data-name="Layer 2">
		<g id="Layer_1-2" data-name="Layer 1">
			<rect class="cls-1" x="288" y="209.25" width="198" height="98" />
			<path d="M485,210.25v96H289v-96H485m2-2H287v100H487v-100Z" />
			<rect class="cls-1" x="288" y="70.25" width="198" height="98" />
			<path d="M485,71.25v96H289v-96H485m2-2H287v100H487v-100Z" />
			<rect class="cls-1" x="1" y="140" width="198" height="98" />
			<path d="M198,141v96H2V141H198m2-2H0V239H200V139Z" />
			<rect class="cls-1" x="575" y="140" width="198" height="98" />
			<path d="M772,141v96H576V141H772m2-2H574V239H774V139Z" />
			<rect class="cls-1" x="862" y="279" width="198" height="98" />
			<path d="M1059,280v96H863V280h196m2-2H861V378h200V278Z" />
			<rect class="cls-1" x="862" y="140" width="198" height="98" />
			<path d="M1059,141v96H863V141h196m2-2H861V239h200V139Z" />
			<rect class="cls-1" x="1149" y="140" width="198" height="98" />
			<path d="M1346,141v96H1150V141h196m2-2H1148V239h200V139Z" />
			<line class="cls-2" x1="216.54" y1="150.46" x2="269.46" y2="97.54" />
			<path d="M208,159c5.51-2.53,13-5,18.81-5.36l-9.15-4.3-4.3-9.15C213,146,210.53,153.5,208,159Z" />
			<path d="M278,89c-2.53,5.51-5,13-5.36,18.81l-4.3-9.15-9.15-4.3C265,94,272.5,91.53,278,89Z" />
			<line class="cls-2" x1="269.46" y1="280.46" x2="216.54" y2="227.54" />
			<path d="M278,289c-2.53-5.51-5-13-5.36-18.81l-4.3,9.15-9.15,4.3C265,284,272.5,286.47,278,289Z" />
			<path d="M208,219c5.51,2.53,13,5,18.81,5.36l-9.15,4.3-4.3,9.15C213,232,210.53,224.5,208,219Z" />
			<line class="cls-2" x1="556.48" y1="227.24" x2="503.55" y2="280.17" />
			<path d="M565,218.71c-5.5,2.52-13,5-18.81,5.36l9.16,4.29,4.29,9.16C560,231.74,562.48,224.21,565,218.71Z" />
			<path d="M495,288.71c2.53-5.51,5-13,5.36-18.81l4.3,9.15,9.15,4.3C508,283.74,500.52,286.18,495,288.71Z" />
			<line class="cls-2" x1="503.55" y1="97.24" x2="556.48" y2="150.17" />
			<path d="M495,88.71c2.53,5.51,5,13,5.36,18.81l4.3-9.16,9.15-4.29C508,93.68,500.52,91.24,495,88.71Z" />
			<path d="M565,158.71c-5.5-2.53-13-5-18.81-5.36l9.16-4.3,4.29-9.15C560,145.68,562.48,153.2,565,158.71Z" />
			<line class="cls-2" x1="791.11" y1="128.42" x2="844.04" y2="75.49" />
			<path d="M782.57,137c5.51-2.53,13-5,18.82-5.37l-9.16-4.29-4.29-9.16C787.54,123.92,785.1,131.45,782.57,137Z" />
			<path d="M852.57,67c-2.52,5.5-5,13-5.36,18.81l-4.29-9.16-9.16-4.29C839.54,71.92,847.07,69.48,852.57,67Z" />
			<line class="cls-2" x1="844.04" y1="302.42" x2="791.11" y2="249.49" />
			<path d="M852.57,311c-2.52-5.51-5-13-5.36-18.82l-4.29,9.16-9.16,4.29C839.54,306,847.07,308.43,852.57,311Z" />
			<path d="M782.57,241c5.51,2.52,13,5,18.82,5.36l-9.16,4.29-4.29,9.16C787.54,254,785.1,246.46,782.57,241Z" />
			<line class="cls-2" x1="1131.05" y1="249.2" x2="1078.12" y2="302.13" />
			<path d="M1139.58,240.66c-5.5,2.53-13,5-18.81,5.37l9.16,4.29,4.29,9.16C1134.62,253.69,1137.06,246.17,1139.58,240.66Z" />
			<path d="M1069.58,310.66c2.53-5.5,5-13,5.37-18.81l4.29,9.16,9.16,4.29C1082.61,305.7,1075.09,308.14,1069.58,310.66Z" />
			<line class="cls-2" x1="1076.12" y1="78.2" x2="1129.05" y2="131.13" />
			<path d="M1067.58,69.66c2.53,5.51,5,13,5.37,18.82l4.29-9.16L1086.4,75C1080.61,74.63,1073.09,72.19,1067.58,69.66Z" />
			<path d="M1137.58,139.66c-5.5-2.52-13-5-18.81-5.36l9.16-4.29,4.29-9.16C1132.62,126.63,1135.06,134.16,1137.58,139.66Z" />
			<rect class="cls-1" x="861" y="1" width="198" height="98" />
			<path d="M1058,2V98H862V2h196m2-2H860V100h200V0Z" />
			<line class="cls-2" x1="841.93" y1="188.97" x2="792.31" y2="188.86" />
			<path d="M854,189c-5.67-2.12-12.71-5.73-17.07-9.55l3.42,9.52-3.46,9.5C841.26,194.67,848.32,191.09,854,189Z" />
			<path d="M780.24,188.83c5.69-2.09,12.74-5.67,17.12-9.47l-3.46,9.5,3.42,9.52C793,194.56,785.92,191,780.24,188.83Z" />
			<line class="cls-2" x1="1129.33" y1="189.03" x2="1079.71" y2="188.92" />
			<path d="M1141.4,189.06c-5.67-2.12-12.71-5.73-17.07-9.55l3.42,9.52-3.46,9.5C1128.66,194.73,1135.72,191.15,1141.4,189.06Z" />
			<path d="M1067.64,188.89c5.69-2.09,12.74-5.67,17.12-9.47l-3.46,9.5,3.42,9.52C1080.36,194.62,1073.32,191,1067.64,188.89Z" />
		</g>
	</g>
</svg>
