<svg xmlns="http://www.w3.org/2000/svg" viewBox="0 0 1585.44 357.98">
	<defs>
		<style>
			.cls-1{fill:#fff;}.cls-2{fill:none;stroke:#000;stroke-miterlimit:10;stroke-width:2px;}
		</style>
	</defs>
	<g id="Layer_2" data-name="Layer 2">
		<g id="Layer_1-2" data-name="Layer 1">
			<rect class="cls-1" x="694.08" y="1" width="198" height="98" />
			<path d="M891.08,2V98h-196V2h196m2-2h-200V100h200V0Z" />
			<rect class="cls-1" x="278.09" y="258.98" width="198" height="98" />
			<path d="M475.09,260v96h-196V260h196m2-2h-200V358h200V258Z" />
			<rect class="cls-1" x="1" y="258.98" width="198" height="98" />
			<path d="M198,260v96H2V260H198m2-2H0V358H200V258Z" />
			<rect class="cls-1" x="555.18" y="258.98" width="198" height="98" />
			<path d="M752.18,260v96h-196V260h196m2-2h-200V358h200V258Z" />
			<rect class="cls-1" x="1386.44" y="258.98" width="198" height="98" />
			<path d="M1583.44,260v96h-196V260h196m2-2h-200V358h200V258Z" />
			<rect class="cls-1" x="832.27" y="258.98" width="198" height="98" />
			<path d="M1029.27,260v96h-196V260h196m2-2h-200V358h200V258Z" />
			<rect class="cls-1" x="1109.35" y="258.98" width="198" height="98" />
			<path d="M1306.35,260v96h-196V260h196m2-2h-200V358h200V258Z" />
			<line class="cls-2" x1="100.08" y1="233.93" x2="100.08" y2="179" />
			<path d="M100.08,246c2.11-5.68,5.71-12.73,9.51-17.09l-9.51,3.44-9.51-3.44C94.38,233.27,98,240.32,100.08,246Z" />
			<line class="cls-2" x1="793.08" y1="179" x2="793.08" y2="125.07" />
			<path d="M793.08,113c2.11,5.68,5.71,12.73,9.51,17.09l-9.51-3.44-9.51,3.44C787.38,125.73,791,118.68,793.08,113Z" />
			<line class="cls-2" x1="1487.08" y1="178.99" x2="99.08" y2="178.99" />
			<line class="cls-2" x1="377.08" y1="233.93" x2="377.08" y2="179" />
			<path d="M377.08,246c2.11-5.68,5.71-12.73,9.51-17.09l-9.51,3.44-9.51-3.44C371.38,233.27,375,240.32,377.08,246Z" />
			<line class="cls-2" x1="654.08" y1="233.93" x2="654.08" y2="179" />
			<path d="M654.08,246c2.11-5.68,5.71-12.73,9.51-17.09l-9.51,3.44-9.51-3.44C648.38,233.27,652,240.32,654.08,246Z" />
			<line class="cls-2" x1="932.08" y1="233.93" x2="932.08" y2="179" />
			<path d="M932.08,246c2.11-5.68,5.71-12.73,9.51-17.09l-9.51,3.44-9.51-3.44C926.38,233.27,930,240.32,932.08,246Z" />
			<line class="cls-2" x1="1208.08" y1="233.93" x2="1208.08" y2="179" />
			<path d="M1208.08,246c2.11-5.68,5.71-12.73,9.51-17.09l-9.51,3.44-9.51-3.44C1202.38,233.27,1206,240.32,1208.08,246Z" />
			<line class="cls-2" x1="1486.08" y1="233.93" x2="1486.08" y2="179" />
			<path d="M1486.08,246c2.11-5.68,5.71-12.73,9.51-17.09l-9.51,3.44-9.51-3.44C1480.38,233.27,1484,240.32,1486.08,246Z" />
		</g>
	</g>
</svg>
